<?xml version="1.0" encoding="UTF-8" standalone="no"?>
<!-- Generator: Adobe Illustrator 15.1.0, SVG Export Plug-In . SVG Version: 6.00 Build 0)  -->

<svg
   xmlns:dc="http://purl.org/dc/elements/1.1/"
   xmlns:cc="http://creativecommons.org/ns#"
   xmlns:rdf="http://www.w3.org/1999/02/22-rdf-syntax-ns#"
   xmlns:svg="http://www.w3.org/2000/svg"
   xmlns="http://www.w3.org/2000/svg"
   xmlns:xlink="http://www.w3.org/1999/xlink"
   xmlns:sodipodi="http://sodipodi.sourceforge.net/DTD/sodipodi-0.dtd"
   xmlns:inkscape="http://www.inkscape.org/namespaces/inkscape"
   version="1.1"
   id="Layer_1"
   x="0px"
   y="0px"
   width="128px"
   height="128px"
   viewBox="0 0 128 128"
   style="enable-background:new 0 0 128 128;"
   xml:space="preserve"
   inkscape:version="0.91 r13725"
   sodipodi:docname="Creative-Tail-People-girl-skintone4.svg"><metadata
     id="metadata3411"><rdf:RDF><cc:Work
         rdf:about=""><dc:format>image/svg+xml</dc:format><dc:type
           rdf:resource="http://purl.org/dc/dcmitype/StillImage" /><dc:title /></cc:Work></rdf:RDF></metadata><defs
     id="defs3409"><defs
       id="defs3347"><circle
         r="64"
         cy="64"
         cx="64"
         id="SVGID_1_" /></defs><clipPath
       id="SVGID_2_"><use
         height="100%"
         width="100%"
         y="0"
         x="0"
         id="use3351"
         style="overflow:visible"
         xlink:href="#SVGID_1_" /></clipPath></defs><sodipodi:namedview
     pagecolor="#ffffff"
     bordercolor="#666666"
     borderopacity="1"
     objecttolerance="10"
     gridtolerance="10"
     guidetolerance="10"
     inkscape:pageopacity="0"
     inkscape:pageshadow="2"
     inkscape:window-width="1280"
     inkscape:window-height="960"
     id="namedview3407"
     showgrid="false"
     inkscape:zoom="3.6875"
     inkscape:cx="7.0212637"
     inkscape:cy="20.650304"
     inkscape:window-x="0"
     inkscape:window-y="27"
     inkscape:window-maximized="1"
     inkscape:current-layer="Layer_1" /><path
     style="fill:#f2cf61"
     d="M 64 0 A 64 64 0 0 0 0 64 A 64 64 0 0 0 31.003906 118.74805 L 31.003906 113.50195 C 31.003906 112.8662 31.161072 112.24135 31.464844 111.63477 C 31.768615 111.02818 32.21832 110.43812 32.800781 109.86914 C 33.383242 109.30016 34.099479 108.75338 34.935547 108.23047 C 35.771615 107.70755 36.726422 107.20864 37.791016 106.74023 C 39.920203 105.80342 42.482203 104.98448 45.375 104.31641 C 48.267797 103.64833 51.491516 103.13253 54.947266 102.80078 C 55.576766 102.74078 56.614344 103.01756 57.699219 103.46094 C 58.784094 103.90431 59.916375 104.51269 60.734375 105.11719 C 62.531375 107.25019 63.376953 108.15795 64.001953 109.00195 C 64.485953 108.37695 64.971688 107.7218 65.585938 107.01367 C 66.200187 106.30555 66.942453 105.54263 67.939453 104.70312 C 68.810453 104.11562 69.959063 103.62545 71.054688 103.29883 C 72.150312 102.9722 73.192203 102.80991 73.845703 102.87891 C 77.199953 103.23191 80.325391 103.76138 83.125 104.43359 C 85.924609 105.10581 88.399391 105.92003 90.455078 106.84766 C 91.482922 107.31147 92.404564 107.80461 93.210938 108.32031 C 94.017311 108.83601 94.708289 109.37594 95.269531 109.93555 C 95.830773 110.49516 96.262236 111.07438 96.554688 111.66992 C 96.847139 112.26546 97 112.8765 97 113.5 L 97 118.75977 A 64 64 0 0 0 128 64 A 64 64 0 0 0 64 0 z "
     id="circle3341" /><path
     style="fill:#8b5b3a;fill-opacity:1"
     d="m 97.764,66.386 c 0.389,-1.892 0.603,-3.842 0.637,-5.835 0.008,-0.191 0.017,-0.386 0.017,-0.55 l -0.002,0 c 0,-18.226 -15.407,-28 -34.414,-28 -19.007,0 -34.414,9.774 -34.414,28 0,2.2 0.229,4.348 0.657,6.427 1.857,13.278 6.727,39.329 1.962,44.094 5.262,5.263 31.796,0 31.796,0 0,0 26.534,5.263 31.796,0 -4.772,-4.771 0.112,-30.872 1.965,-44.136 z"
     id="path3355"
     inkscape:connector-curvature="0" /><path
     inkscape:connector-curvature="0"
     id="path3359"
     d="M 98.414,60 C 98.414,41.774 83.007,32 64,32 63.328,32 62.662,32.016 62,32.04 80.075,32.705 94.414,42.418 94.414,60 l 0.002,0 c 0,0.164 -0.009,0.359 -0.017,0.55 -0.034,1.993 -0.248,3.943 -0.637,5.835 -1.853,13.266 -6.735,39.365 -1.967,44.135 -1.512,1.513 -4.783,2.152 -8.674,2.301 5.551,0.182 10.664,-0.291 12.674,-2.301 -4.77,-4.77 0.114,-30.869 1.967,-44.135 0.389,-1.892 0.603,-3.842 0.637,-5.835 0.008,-0.191 0.017,-0.386 0.017,-0.55 l -0.002,0 z"
     style="fill:#683e1f;fill-opacity:1" /><path
     style="fill:#d1aa72;fill-opacity:1"
     d="m 72,90 -8,0 -8,0 c -2,3 -6,12 -6,14 4,0 10.283,5 14,5 3.717,0 10,-5 14,-5 0,-2 -4,-11 -6,-14 z"
     id="path3363"
     inkscape:connector-curvature="0" /><path
     style="fill:#946f49;fill-opacity:1"
     d="m 72,90 -3,0 c 2,3 6,12 6,14 -3.502,0 -8.752,3.831 -12.5,4.786 0.533,0.136 1.037,0.214 1.5,0.214 3.717,0 10,-5 14,-5 0,-2 -4,-11 -6,-14 z"
     id="path3365"
     inkscape:connector-curvature="0" /><path
     style="fill:#91d2f2;fill-opacity:1"
     d="M 97 118.75977 L 97 113.5 C 97 112.8765 96.847139 112.26546 96.554688 111.66992 C 96.262236 111.07438 95.830773 110.49516 95.269531 109.93555 C 94.708289 109.37594 94.017311 108.83601 93.210938 108.32031 C 92.404564 107.80461 91.482922 107.31147 90.455078 106.84766 C 88.399391 105.92003 85.924609 105.10581 83.125 104.43359 C 80.325391 103.76138 77.199953 103.23191 73.845703 102.87891 C 73.192203 102.80991 72.150312 102.9722 71.054688 103.29883 C 69.959063 103.62545 68.810453 104.11562 67.939453 104.70312 C 66.942453 105.54263 66.200187 106.30555 65.585938 107.01367 C 64.971688 107.7218 64.485953 108.37695 64.001953 109.00195 C 63.376953 108.15795 62.531375 107.25019 60.734375 105.11719 C 59.916375 104.51269 58.784094 103.90431 57.699219 103.46094 C 56.614344 103.01756 55.576766 102.74078 54.947266 102.80078 C 51.491516 103.13253 48.267797 103.64833 45.375 104.31641 C 42.482203 104.98448 39.920203 105.80342 37.791016 106.74023 C 36.726422 107.20864 35.771615 107.70755 34.935547 108.23047 C 34.099479 108.75338 33.383242 109.30016 32.800781 109.86914 C 32.21832 110.43812 31.768615 111.02818 31.464844 111.63477 C 31.161072 112.24135 31.003906 112.8662 31.003906 113.50195 L 31.003906 118.74805 A 64 64 0 0 0 64 128 A 64 64 0 0 0 97 118.75977 z "
     id="path3544" /><path
     inkscape:connector-curvature="0"
     id="path3371"
     d="m 56.656,105.719 c 2.219,2.094 4.531,5.094 5.156,5.938 0.451,-0.584 1.565,-2.001 2.125,-2.656 -0.46,-0.534 -2.488,-3.034 -3.203,-3.883 -1.636,-1.209 -4.528,-2.438 -5.787,-2.318 -0.563,0.054 -1.118,0.115 -1.668,0.179 1.409,0.371 2.186,1.858 3.377,2.74 z"
     style="fill:#8ac7e6" /><path
     style="fill:#8ac7e6"
     d="M 73.845703 102.87891 C 73.642585 102.8574 73.396835 102.86338 73.126953 102.88672 C 73.092496 102.88943 73.054877 102.89506 73.019531 102.89844 C 72.760273 102.92518 72.481489 102.96516 72.185547 103.02344 C 72.177887 103.02495 72.17174 103.02582 72.164062 103.02734 C 84.89604 104.57053 94 108.67625 94 113.5 L 94 120.42969 A 64 64 0 0 0 97 118.75977 L 97 113.5 C 97 113.34413 96.989603 113.18943 96.970703 113.03516 C 96.838923 111.95515 96.251048 110.91467 95.269531 109.93555 C 94.708289 109.37594 94.017311 108.83601 93.210938 108.32031 C 92.80775 108.06246 92.375703 107.81018 91.916016 107.56445 C 90.99595 107.07366 89.965644 106.60873 88.835938 106.17383 C 87.14143 105.52197 85.224707 104.93776 83.125 104.43359 C 81.025293 103.92944 78.741742 103.50513 76.316406 103.17578 C 75.508073 103.06608 74.684266 102.96716 73.845703 102.87891 z "
     id="path3373" /><g
     id="g3375"><path
       style="fill:#f5f5f5"
       d="m 64,109 -2.875,-2.938 c 0,0 -3.188,1.125 -4.438,3.438 -2.813,-0.188 -7.813,-3.5 -9.438,-5.5 1.375,-1.813 2.721,-2.783 3.642,-3.268 1.483,0.206 10.422,3.268 10.422,3.268 L 64,109 Z"
       id="path3377"
       inkscape:connector-curvature="0" /><path
       style="fill:#f5f5f5"
       d="m 64,109 2.875,-2.938 c 0,0 3.188,1.125 4.438,3.438 2.813,-0.188 7.813,-3.5 9.438,-5.5 -1.375,-1.813 -2.721,-2.783 -3.642,-3.268 C 75.626,100.938 66.688,104 66.688,104 L 64,109 Z"
       id="path3379"
       inkscape:connector-curvature="0" /></g><path
     style="fill:#d0a872;fill-opacity:1"
     d="M 67.25,46.5 C 66,64.167 35.316,59.875 35.316,71.579 38.716,85.645 50.267,96 64,96 80.24,96 93.428,81.52 93.691,63.547 78.441,61.669 69.404,49.133 67.25,46.5 Z"
     id="path3381"
     inkscape:connector-curvature="0" /><g
     id="g3383" /><path
     id="path3387"
     style="fill:#b89163;fill-opacity:1"
     d="m 67.25,46.5 c 2.154,2.633 8.134,16.753 23.384,18.63 C 90.379,82.522 78.074,95.16 62.563,95.959 63.04,95.984 63.518,96 64.001,96 80.241,96 93.429,81.52 93.692,63.547 78.441,61.669 69.404,49.133 67.25,46.5 Z m 0,0 C 66,64.167 35.316,59.875 35.316,71.579 c 0.054,0.222 0.114,0.44 0.173,0.66 2.4,-10.013 31.882,-6.471 31.761,-25.739 z" /><g
     id="g3389"><path
       style="fill:#e6baad"
       d="m 76.948,82.65 c 0.567,0.865 -4.886,5.746 -12.948,5.746 -8.062,0 -13.515,-4.881 -12.946,-5.746 0.569,-0.866 6.07,1.996 12.946,1.996 6.876,0 12.38,-2.861 12.948,-1.996 z"
       id="path3391"
       inkscape:connector-curvature="0" /></g><circle
     id="circle3397"
     r="4"
     cy="68"
     cx="54"
     style="fill:#f5f5f5" /><circle
     id="circle3399"
     r="2"
     cy="68"
     cx="54"
     style="fill:#734822" /><circle
     id="circle3403"
     r="4"
     cy="68"
     cx="76"
     style="fill:#f5f5f5" /><circle
     id="circle3405"
     r="2"
     cy="68"
     cx="76"
     style="fill:#734822" /></svg>